HIERARCHY
ROOT hip
{
  OFFSET 0.477233 82.3933 162.802
  CHANNELS 6 Xposition Yposition Zposition Zrotation Xrotation Yrotation
  JOINT abdomen
  {
    OFFSET 0 20.6881 -0.73152
    CHANNELS 3 Zrotation Xrotation Yrotation
    JOINT chest
    {
      OFFSET 0 11.7043 -0.48768
      CHANNELS 3 Zrotation Xrotation Yrotation
      JOINT neck
      {
        OFFSET 0 22.1894 -2.19456
        CHANNELS 3 Zrotation Xrotation Yrotation
        JOINT head
        {
          OFFSET -0.24384 7.07133 1.2192
          CHANNELS 3 Zrotation Xrotation Yrotation
          JOINT leftEye
          {
            OFFSET 4.14528 8.04674 8.04672
            CHANNELS 3 Zrotation Xrotation Yrotation
            End Site
            {
              OFFSET 1 0 0
            }
          }
          JOINT rightEye
          {
            OFFSET -3.6576 8.04674 8.04672
            CHANNELS 3 Zrotation Xrotation Yrotation
            End Site
            {
              OFFSET 1 0 0
            }
          }
        }
      }
      JOINT rCollar
      {
        OFFSET -2.68224 19.2634 -4.8768
        CHANNELS 3 Zrotation Xrotation Yrotation
        JOINT rShldr
        {
          OFFSET -8.77824 -1.95073 1.46304
          CHANNELS 3 Zrotation Xrotation Yrotation
          JOINT rForeArm
          {
            OFFSET -28.1742 -1.7115 0.48768
            CHANNELS 3 Zrotation Xrotation Yrotation
            JOINT rHand
            {
              OFFSET -22.5879 0.773209 7.07136
              CHANNELS 3 Zrotation Xrotation Yrotation
              JOINT rThumb1
              {
                OFFSET -1.2192 -0.487915 3.41376
                CHANNELS 3 Zrotation Xrotation Yrotation
                JOINT rThumb2
                {
                  OFFSET -3.37035 -0.52449 3.41376
                  CHANNELS 3 Zrotation Xrotation Yrotation
                  End Site
                  {
                    OFFSET -1.78271 -1.18214 1.43049
                  }
                }
              }
              JOINT rIndex1
              {
                OFFSET -7.75947 0.938293 5.60832
                CHANNELS 3 Zrotation Xrotation Yrotation
                JOINT rIndex2
                {
                  OFFSET -2.54057 -0.884171 1.56538
                  CHANNELS 3 Zrotation Xrotation Yrotation
                  End Site
                  {
                    OFFSET -1.62519 -0.234802 1.16502
                  }
                }
              }
              JOINT rMid1
              {
                OFFSET -8.24714 1.18213 3.41376
                CHANNELS 3 Zrotation Xrotation Yrotation
                JOINT rMid2
                {
                  OFFSET -3.10165 -0.590103 1.0647
                  CHANNELS 3 Zrotation Xrotation Yrotation
                  End Site
                  {
                    OFFSET -2.48547 -0.328903 0.83742
                  }
                }
              }
              JOINT rRing1
              {
                OFFSET -8.82822 0.546677 1.51678
                CHANNELS 3 Zrotation Xrotation Yrotation
                JOINT rRing2
                {
                  OFFSET -2.60934 -0.819778 -0.0198488
                  CHANNELS 3 Zrotation Xrotation Yrotation
                  End Site
                  {
                    OFFSET -2.33842 -0.294052 0.168128
                  }
                }
              }
              JOINT rPinky1
              {
                OFFSET -8.27202 -0.0477905 -0.4584
                CHANNELS 3 Zrotation Xrotation Yrotation
                JOINT rPinky2
                {
                  OFFSET -1.82734 -0.647385 -0.700984
                  CHANNELS 3 Zrotation Xrotation Yrotation
                  End Site
                  {
                    OFFSET -1.69225 -0.51767 -0.607171
                  }
                }
              }
            }
          }
        }
      }
      JOINT lCollar
      {
        OFFSET 2.68224 19.2634 -4.8768
        CHANNELS 3 Zrotation Xrotation Yrotation
        JOINT lShldr
        {
          OFFSET 8.77824 -1.95073 1.46304
          CHANNELS 3 Zrotation Xrotation Yrotation
          JOINT lForeArm
          {
            OFFSET 28.1742 -1.7115 0.48768
            CHANNELS 3 Zrotation Xrotation Yrotation
            JOINT lHand
            {
              OFFSET 22.5879 0.773209 7.07136
              CHANNELS 3 Zrotation Xrotation Yrotation
              JOINT lThumb1
              {
                OFFSET 1.2192 -0.487915 3.41376
                CHANNELS 3 Zrotation Xrotation Yrotation
                JOINT lThumb2
                {
                  OFFSET 3.37035 -0.52449 3.41376
                  CHANNELS 3 Zrotation Xrotation Yrotation
                  End Site
                  {
                    OFFSET 1.78271 -1.18214 1.43049
                  }
                }
              }
              JOINT lIndex1
              {
                OFFSET 7.75947 0.938293 5.60832
                CHANNELS 3 Zrotation Xrotation Yrotation
                JOINT lIndex2
                {
                  OFFSET 2.54057 -0.884171 1.56538
                  CHANNELS 3 Zrotation Xrotation Yrotation
                  End Site
                  {
                    OFFSET 1.62519 -0.234802 1.16502
                  }
                }
              }
              JOINT lMid1
              {
                OFFSET 8.24714 1.18213 3.41376
                CHANNELS 3 Zrotation Xrotation Yrotation
                JOINT lMid2
                {
                  OFFSET 3.10165 -0.590103 1.0647
                  CHANNELS 3 Zrotation Xrotation Yrotation
                  End Site
                  {
                    OFFSET 2.48547 -0.328903 0.83742
                  }
                }
              }
              JOINT lRing1
              {
                OFFSET 8.82822 0.546677 1.51678
                CHANNELS 3 Zrotation Xrotation Yrotation
                JOINT lRing2
                {
                  OFFSET 2.60934 -0.819778 -0.0198488
                  CHANNELS 3 Zrotation Xrotation Yrotation
                  End Site
                  {
                    OFFSET 2.33842 -0.294052 0.168128
                  }
                }
              }
              JOINT lPinky1
              {
                OFFSET 8.27202 -0.0477905 -0.4584
                CHANNELS 3 Zrotation Xrotation Yrotation
                JOINT lPinky2
                {
                  OFFSET 1.82734 -0.647385 -0.700984
                  CHANNELS 3 Zrotation Xrotation Yrotation
                  End Site
                  {
                    OFFSET 1.69225 -0.51767 -0.607171
                  }
                }
              }
            }
          }
        }
      }
    }
  }
  JOINT rButtock
  {
    OFFSET -8.77824 4.35084 1.2192
    CHANNELS 3 Zrotation Xrotation Yrotation
    JOINT rThigh
    {
      OFFSET 0 -1.70687 -2.19456
      CHANNELS 3 Zrotation Xrotation Yrotation
      JOINT rShin
      {
        OFFSET 0 -36.8199 0.73152
        CHANNELS 3 Zrotation Xrotation Yrotation
        JOINT rFoot
        {
          OFFSET 0.73152 -45.1104 -5.12064
          CHANNELS 3 Zrotation Xrotation Yrotation
          End Site
          {
            OFFSET -1.1221 -3.69964 12.103
          }
        }
      }
    }
  }
  JOINT lButtock
  {
    OFFSET 8.77824 4.35084 1.2192
    CHANNELS 3 Zrotation Xrotation Yrotation
    JOINT lThigh
    {
      OFFSET 0 -1.70687 -2.19456
      CHANNELS 3 Zrotation Xrotation Yrotation
      JOINT lShin
      {
        OFFSET 0 -36.8199 0.73152
        CHANNELS 3 Zrotation Xrotation Yrotation
        JOINT lFoot
        {
          OFFSET -0.73152 -45.1104 -5.12064
          CHANNELS 3 Zrotation Xrotation Yrotation
          End Site
          {
            OFFSET 1.1221 -3.69964 12.103
          }
        }
      }
    }
  }
}
MOTION
Frames:	6
Frame Time:	0.00833333
1.72929 82.7196 -57.381 1.56048 3.1074 -0.378113 0.976337 6.55737 -5.77119 5.16902 -2.74064 -1.40096 -9.44291 0.16589 -4.48682 11.6478 -0.417467 -6.2548 -0 0 0 -0 0 0 8.24204e-014 -8.26907e-014 -2.04748e-014 78.7293 2.73541 -2.88557 -11.3302 -4.98981 20.3207 -0.156754 11.2137 1.59663 -7.11785e-010 -1.36225e-009 7.54841e-011 -1.22743e-009 -2.35788e-009 1.35523e-010 -7.11782e-010 -1.36225e-009 7.54587e-011 7.73091 5.47488 0.417314 -7.11785e-010 -1.36225e-009 7.54873e-011 2.90554 0.965183 0.102902 -7.11775e-010 -1.36225e-009 7.54841e-011 10.2786 0.731801 0.0259123 -7.11786e-010 -1.36225e-009 7.54873e-011 2.22167 -0.733487 -0.20892 8.21788e-014 -8.26999e-014 -2.08724e-014 -77.6148 26.2683 -6.71961 13.4872 -6.54803 -24.528 0.127489 10.1282 -1.43859 -5.97171e-010 -1.90733e-009 -1.70037e-009 -1.04818e-009 -3.30685e-009 -2.93464e-009 -5.97179e-010 -1.90733e-009 -1.70036e-009 -7.73091 5.47488 -0.417314 -5.97166e-010 -1.90733e-009 -1.70038e-009 -2.90554 0.965183 -0.102902 -5.97168e-010 -1.90732e-009 -1.70038e-009 -10.2786 0.731801 -0.0259123 -5.97163e-010 -1.90732e-009 -1.70039e-009 -2.22167 -0.733487 0.20892 -2.03217e-016 0 -3.88251e-019 2.80689 -32.4407 2.4914 -0.244492 31.7532 0.0696115 -0.517605 0.977009 -1.92824 2.03217e-016 0 3.88251e-019 -3.15016 -0.176163 -4.98675 0.41108 43.2622 -0.785295 3.65963 23.0948 -9.88854 
1.48915 82.836 -56.3276 1.03995 2.98569 -0.40181 1.59191 6.68224 -5.54784 5.04164 -2.71904 -1.32239 -9.45751 0.171713 -4.54806 11.8521 -0.418919 -6.37124 -0 0 0 -0 0 0 6.10544e-014 -8.61113e-014 -4.04053e-015 78.7789 2.33541 -2.90988 -11.2156 -4.9132 20.1024 -0.173687 11.8153 1.68456 -6.23268e-010 -9.92822e-010 2.94948e-010 -1.07224e-009 -1.71888e-009 5.1439e-010 -6.23262e-010 -9.92819e-010 2.94926e-010 7.73091 5.47488 0.417314 -6.23269e-010 -9.92821e-010 2.94952e-010 2.90554 0.965183 0.102902 -6.23261e-010 -9.92821e-010 2.94951e-010 10.2786 0.731801 0.0259123 -6.2327e-010 -9.9282e-010 2.94955e-010 2.22167 -0.733487 -0.20892 6.08183e-014 -8.61249e-014 -4.40782e-015 -77.715 26.6169 -6.57581 13.4976 -6.55592 -24.5492 0.129743 10.2158 -1.4513 -5.2361e-010 -1.63802e-009 -1.42875e-009 -9.18629e-010 -2.83967e-009 -2.46548e-009 -5.23619e-010 -1.63801e-009 -1.42874e-009 -7.73091 5.47488 -0.417314 -5.23607e-010 -1.63801e-009 -1.42875e-009 -2.90554 0.965183 -0.102902 -5.23609e-010 -1.63801e-009 -1.42876e-009 -10.2786 0.731801 -0.0259123 -5.23602e-010 -1.63801e-009 -1.42877e-009 -2.22167 -0.733487 0.20892 -2.03217e-016 0 -3.88251e-019 3.58451 -31.4905 2.74841 -0.241761 31.6193 0.0466937 -0.543308 0.468631 -2.1685 2.03217e-016 0 3.88251e-019 -2.52324 -1.54453 -4.77319 0.471665 45.5525 -0.840924 3.61311 22.7838 -9.99103 
1.24968 82.9481 -55.2831 0.524322 2.84324 -0.45365 2.20485 6.83862 -5.28592 4.88146 -2.64804 -1.23551 -9.47907 0.165278 -4.62757 12.0846 -0.520059 -6.50965 -0 0 0 -0 0 0 2.79536e-014 -7.74686e-014 2.41492e-014 78.8642 1.96591 -2.84464 -11.1188 -4.8493 19.9173 -0.194342 12.4969 1.78474 -4.30437e-010 -2.14073e-010 5.29441e-010 -7.36693e-010 -3.71388e-010 9.18595e-010 -4.30426e-010 -2.14072e-010 5.29424e-010 7.73091 5.47488 0.417314 -4.30438e-010 -2.14073e-010 5.29447e-010 2.90554 0.965183 0.102902 -4.30433e-010 -2.14073e-010 5.29447e-010 10.2786 0.731801 0.0259123 -4.30439e-010 -2.1407e-010 5.29452e-010 2.22167 -0.733487 -0.20892 2.77609e-014 -7.74855e-014 2.38262e-014 -77.7763 26.8961 -6.49836 13.5133 -6.56773 -24.5812 0.132877 10.335 -1.46862 -3.67516e-010 -9.69557e-010 -7.46467e-010 -6.42482e-010 -1.67935e-009 -1.2867e-009 -3.67527e-010 -9.69556e-010 -7.46456e-010 -7.73091 5.47488 -0.417314 -3.67517e-010 -9.69557e-010 -7.46473e-010 -2.90554 0.965183 -0.102902 -3.67519e-010 -9.69555e-010 -7.46472e-010 -10.2786 0.731801 -0.0259123 -3.67511e-010 -9.69553e-010 -7.46482e-010 -2.22167 -0.733487 0.20892 -2.03217e-016 0 -3.88251e-019 4.35001 -30.5014 3.00886 -0.237562 31.433 0.0263397 -0.579895 -0.0802909 -2.46268 2.03217e-016 0 3.88251e-019 -1.89259 -2.94913 -4.50061 0.540275 47.8595 -0.904185 3.30406 21.4871 -9.76849 
1.04784 83.0372 -54.3035 0.0633599 2.70434 -0.523778 2.7471 6.99415 -5.01037 4.72137 -2.57954 -1.14641 -9.49809 0.17832 -4.70341 12.301 -0.656963 -6.64088 -0 0 0 -0 0 0 -3.82394e-015 -6.14966e-014 4.78927e-014 78.9613 1.7084 -2.7608 -11.0416 -4.79886 19.7698 -0.214796 13.1115 1.8757 -2.07375e-010 5.60088e-010 6.91947e-010 -3.49699e-010 9.68312e-010 1.19809e-009 -2.07359e-010 5.6009e-010 6.91934e-010 7.73091 5.47488 0.417314 -2.07377e-010 5.60089e-010 6.91954e-010 2.90554 0.965183 0.102902 -2.07374e-010 5.60089e-010 6.91956e-010 10.2786 0.731801 0.0259123 -2.07378e-010 5.60093e-010 6.91962e-010 2.22167 -0.733487 -0.20892 -3.96259e-015 -6.1515e-014 4.7614e-014 -77.8548 27.1162 -6.39127 13.5504 -6.59666 -24.6552 0.13505 10.4169 -1.48052 -1.95333e-010 -2.38051e-010 -1.38554e-011 -3.38005e-010 -4.09674e-010 -2.1052e-011 -1.95345e-010 -2.38051e-010 -1.38454e-011 -7.73091 5.47488 -0.417314 -1.95337e-010 -2.38053e-010 -1.386e-011 -2.90554 0.965183 -0.102902 -1.9534e-010 -2.38052e-010 -1.38549e-011 -10.2786 0.731801 -0.0259123 -1.95331e-010 -2.38051e-010 -1.38629e-011 -2.22167 -0.733487 0.20892 -2.03217e-016 0 -3.88251e-019 5.0393 -29.512 3.25388 -0.232344 31.2196 0.00955178 -0.624479 -0.643661 -2.76431 2.03217e-016 0 3.88251e-019 -1.31056 -4.38048 -4.19335 0.614209 50.0727 -0.972789 2.91222 19.7769 -9.44866 
0.888722 83.1266 -53.2919 -0.292978 2.59331 -0.602347 3.15146 7.11647 -4.74617 4.59456 -2.56542 -1.06113 -9.50493 0.242562 -4.75364 12.4581 -0.7658 -6.73575 -0 0 0 -0 0 0 -2.122e-014 -4.29293e-014 5.09883e-014 79.0444 1.64452 -2.72918 -10.9862 -4.76266 19.6644 -0.229291 13.512 1.93535 -2.81678e-011 9.15758e-010 6.95451e-010 -4.01883e-011 1.58395e-009 1.20284e-009 -2.81507e-011 9.1576e-010 6.95441e-010 7.73091 5.47488 0.417314 -2.81702e-011 9.15759e-010 6.95457e-010 2.90554 0.965183 0.102902 -2.81687e-011 9.15759e-010 6.95459e-010 10.2786 0.731801 0.0259123 -2.81718e-011 9.15763e-010 6.95466e-010 2.22167 -0.733487 -0.20892 -2.13212e-014 -4.29464e-014 5.07398e-014 -78.008 27.2873 -6.15778 13.625 -6.65581 -24.8026 0.134322 10.3924 -1.47695 -7.35026e-011 2.204e-010 4.08762e-010 -1.23469e-010 3.85566e-010 7.08715e-010 -7.3513e-011 2.204e-010 4.08771e-010 -7.73091 5.47488 -0.417314 -7.35084e-011 2.20396e-010 4.08759e-010 -2.90554 0.965183 -0.102902 -7.35111e-011 2.20397e-010 4.08766e-010 -10.2786 0.731801 -0.0259123 -7.35016e-011 2.20398e-010 4.08759e-010 -2.22167 -0.733487 0.20892 -2.03217e-016 0 -3.88251e-019 5.59056 -28.5609 3.46556 -0.226492 31.0046 -0.00270209 -0.67188 -1.19548 -3.02688 2.03217e-016 0 3.88251e-019 -0.831989 -5.82885 -3.87561 0.68925 52.0818 -1.04305 2.59057 18.2296 -9.24118 
0.777203 83.2456 -52.2937 -0.505291 2.51334 -0.672659 3.36799 7.20291 -4.51464 4.51812 -2.63799 -0.984872 -9.49271 0.390933 -4.76603 12.5409 -0.842546 -6.77735 -0 0 0 -0 0 0 -1.65615e-014 -1.62395e-014 1.89797e-014 79.1083 1.8755 -2.79532 -10.9664 -4.74955 19.6271 -0.232555 13.5928 1.94749 1.02959e-010 6.16125e-010 4.074e-010 1.83089e-010 1.06593e-009 7.0357e-010 1.02974e-010 6.16127e-010 4.07393e-010 7.73091 5.47488 0.417314 1.02957e-010 6.16127e-010 4.07405e-010 2.90554 0.965183 0.102902 1.02959e-010 6.16127e-010 4.07406e-010 10.2786 0.731801 0.0259123 1.02955e-010 6.1613e-010 4.07412e-010 2.22167 -0.733487 -0.20892 -1.66478e-014 -1.62499e-014 1.87463e-014 -78.2773 27.4033 -5.72711 13.7566 -6.76084 -25.0634 0.130322 10.2395 -1.45473 -3.26442e-011 2.75024e-010 3.73369e-010 -5.3269e-011 4.79108e-010 6.46744e-010 -3.26509e-011 2.75027e-010 3.7338e-010 -7.73091 5.47488 -0.417314 -3.26486e-011 2.75022e-010 3.73368e-010 -2.90554 0.965183 -0.102902 -3.2652e-011 2.75022e-010 3.73374e-010 -10.2786 0.731801 -0.0259123 -3.26432e-011 2.75023e-010 3.73366e-010 -2.22167 -0.733487 0.20892 -2.03217e-016 0 -3.88251e-019 5.96093 -27.6534 3.64354 -0.219748 30.786 -0.010288 -0.720859 -1.72495 -3.26161 2.03217e-016 0 3.88251e-019 -0.497029 -7.29586 -3.57249 0.763649 53.8671 -1.11366 2.34825 16.901 -9.19625 
